<svg width="32" height="32" viewBox="0 0 32 32" fill="none" xmlns="http://www.w3.org/2000/svg">
<path d="M0.746582 16.1347C0.746582 7.62598 7.64429 0.728271 16.153 0.728271C24.6617 0.728271 31.5594 7.62598 31.5594 16.1347C31.5594 16.5858 31.5299 17.0297 31.492 17.4711C30.92 17.2314 30.2925 17.0976 29.6336 17.0976C28.2801 17.0976 27.0617 17.66 26.187 18.559C25.4729 18.2432 24.6873 18.0605 23.8562 18.0605C20.6655 18.0605 18.0788 20.6471 18.0788 23.8379C18.0788 24.669 18.2615 25.4546 18.5773 26.1687C17.6783 27.0434 17.1159 28.2618 17.1159 29.6153C17.1159 30.2742 17.2498 30.9017 17.4895 31.4737C17.0481 31.5116 16.6041 31.5411 16.153 31.5411C7.64429 31.5411 0.746582 24.6434 0.746582 16.1347Z" fill="#412D22"/>
<path d="M16.153 0.728271C7.64429 0.728271 0.746582 7.62598 0.746582 16.1347C0.746582 24.6434 7.64429 31.5411 16.153 31.5411C16.6041 31.5411 17.0481 31.5116 17.4895 31.4737C17.2498 30.9017 17.1159 30.2742 17.1159 29.6153C17.1159 28.2618 17.6783 27.0434 18.5773 26.1687C18.2615 25.4546 18.0788 24.669 18.0788 23.8379C18.0788 20.6471 20.6655 18.0605 23.8562 18.0605C24.6873 18.0605 25.4729 18.2432 26.187 18.559C27.0617 17.66 28.2801 17.0976 29.6336 17.0976C30.2925 17.0976 30.92 17.2314 31.492 17.4711C31.5299 17.0297 31.5594 16.5858 31.5594 16.1347C31.5594 7.62598 24.6617 0.728271 16.153 0.728271ZM5.5611 16.1347C5.02936 16.1347 4.59822 15.7036 4.59822 15.1718C4.59822 14.64 5.02936 14.2089 5.5611 14.2089C6.09284 14.2089 6.52398 14.64 6.52398 15.1718C6.52398 15.7036 6.09284 16.1347 5.5611 16.1347ZM10.3756 23.8379C9.31191 23.8379 8.44974 22.9756 8.44974 21.912C8.44974 20.8484 9.31191 19.9862 10.3756 19.9862C11.4392 19.9862 12.3014 20.8484 12.3014 21.912C12.3014 22.9756 11.4392 23.8379 10.3756 23.8379ZM12.3014 10.3572C11.2377 10.3572 10.3756 9.49496 10.3756 8.43143C10.3756 7.36778 11.2377 6.50561 12.3014 6.50561C13.365 6.50561 14.2272 7.36778 14.2272 8.43143C14.2272 9.49496 13.365 10.3572 12.3014 10.3572ZM15.1901 18.0605C14.6583 18.0605 14.2272 17.6293 14.2272 17.0976C14.2272 16.5657 14.6583 16.1347 15.1901 16.1347C15.7218 16.1347 16.153 16.5657 16.153 17.0976C16.153 17.6293 15.7219 18.0605 15.1901 18.0605ZM20.9675 4.57985C21.4992 4.57985 21.9304 5.01088 21.9304 5.54273C21.9304 6.07447 21.4992 6.50561 20.9675 6.50561C20.4357 6.50561 20.0046 6.07447 20.0046 5.54273C20.0046 5.01088 20.4357 4.57985 20.9675 4.57985ZM21.9304 14.2089C20.8668 14.2089 20.0046 13.3466 20.0046 12.2831C20.0046 11.2194 20.8668 10.3572 21.9304 10.3572C22.9941 10.3572 23.8562 11.2194 23.8562 12.2831C23.8562 13.3466 22.994 14.2089 21.9304 14.2089Z" fill="#E39A3B"/>
</svg>
