<svg width="114" height="57" fill="none" xmlns="http://www.w3.org/2000/svg"><path d="M38.65 47.22c1.08 0 2.03-.38 2.85-1.14.84-.76 1.26-1.63 1.26-2.61 0-1-.31-1.92-.93-2.76-.68.34-1.35.51-2.01.51-1.54 0-2.31-.48-2.31-1.44 0-.28.19-.53.57-.75.38-.24.92-.36 1.62-.36.72 0 1.5.21 2.34.63.8-.86 1.2-1.83 1.2-2.91 0-1.34-.59-2.4-1.77-3.18-1.16-.8-2.41-1.2-3.75-1.2-.28 0-.49.01-.63.03-.02.58-.07 1.51-.15 2.79-.12 1.92-.18 4.85-.18 8.79 0 1.52-.11 2.28-.33 2.28-.86 0-1.41-.12-1.65-.36s-.36-.93-.36-2.07c0-.28.05-1.43.15-3.45.12-2.02.18-3.65.18-4.89 0-1.24.04-2.15.12-2.73-1.06.36-1.63.94-1.71 1.74-.08.66-.23 1.12-.45 1.38-.2.26-.48.39-.84.39-.34 0-.57-.09-.69-.27-.12-.2-.18-.4-.18-.6 0-1.74 1.35-2.94 4.05-3.6.34-1.36.88-2.04 1.62-2.04.3 0 .45.56.45 1.68.52-.06 1.16-.09 1.92-.09.78 0 1.67.15 2.67.45 1 .28 1.87.79 2.61 1.53.74.72 1.11 1.53 1.11 2.43 0 1.68-.81 3.19-2.43 4.53 1.12.88 1.68 1.93 1.68 3.15s-.38 2.23-1.14 3.03c-1.42 1.46-3.32 2.19-5.7 2.19-1.62 0-2.78-.11-3.48-.33-.14-.04-.29-.14-.45-.3-.14-.18-.21-.4-.21-.66 0-.42.41-.63 1.23-.63.26 0 .83.14 1.71.42.88.28 1.55.42 2.01.42zm2.55-7.17c-.6-.5-1.17-.75-1.71-.75-.52 0-.78.11-.78.33 0 .46.49.69 1.47.69.36 0 .7-.09 1.02-.27zm13.406 8.1c-.78 0-1.37-.16-1.77-.48-.14-.14-.21-.49-.21-1.05 0-.58.02-1.35.06-2.31-.52 1.3-1.04 2.27-1.56 2.91-.5.62-1.15.93-1.95.93s-1.5-.37-2.1-1.11c-.6-.76-.9-1.94-.9-3.54 0-1.62.45-3.05 1.35-4.29.92-1.24 2.12-1.86 3.6-1.86.64 0 1.36.42 2.16 1.26.16-.22.44-.48.84-.78.42-.32.77-.48 1.05-.48.3 0 .45.38.45 1.14 0 .2-.06.59-.18 1.17-.1.58-.22 1-.36 1.26-.18.46-.27 2.09-.27 4.89 0 .54.06.81.18.81.34-.02.81-.44 1.41-1.26.6-.84 1.19-1.91 1.77-3.21.6-1.3.96-1.95 1.08-1.95.14 0 .21.08.21.24 0 .56-.29 1.45-.87 2.67-1.58 3.36-2.91 5.04-3.99 5.04zm-3.66-9.6c-.56 0-1.16.42-1.8 1.26-.62.82-.93 1.79-.93 2.91s.16 2.04.48 2.76c.34.72.78 1.08 1.32 1.08.66 0 1.63-1.65 2.91-4.95.02-.16.04-.43.06-.81l.09-.9c-.18-.32-.5-.62-.96-.9-.44-.3-.83-.45-1.17-.45zm16.374 10.5l.81-.09c.16 0 .24.08.24.24 0 .28-.19.49-.57.63-.38.14-.81.21-1.29.21-.9 0-1.66-.36-2.28-1.08-.6-.72-1.44-2.05-2.52-3.99-.26-.42-.39-.74-.39-.96 0-.3.42-.65 1.26-1.05 1.36-.7 2.04-1.58 2.04-2.64 0-.3-.11-.55-.33-.75-.2-.22-.47-.33-.81-.33-.48 0-1.05.57-1.71 1.71-.66 1.12-1.11 2.18-1.35 3.18-.22.98-.33 2.04-.33 3.18 0 .56-.16.84-.48.84-.46 0-.9-.06-1.32-.18-.42-.14-.63-.31-.63-.51 0-.22.08-1.17.24-2.85.16-1.7.25-2.92.27-3.66.08-4.08.32-7.2.72-9.36.06-.18.33-.49.81-.93.5-.44.9-.66 1.2-.66.3 0 .44.38.42 1.14 0 .74-.16 2.34-.48 4.8-.32 2.46-.52 4.71-.6 6.75.36-1.28.93-2.49 1.71-3.63.8-1.14 1.6-1.71 2.4-1.71 1.36 0 2.04.66 2.04 1.98 0 .88-.26 1.68-.78 2.4-.52.7-1.22 1.27-2.1 1.71-.18.08-.27.17-.27.27s.03.2.09.3c1.26 2.22 2.33 3.78 3.21 4.68.24.24.5.36.78.36zm4.283-.9c-1.12 0-2.01-.42-2.67-1.26-.66-.86-.99-1.83-.99-2.91 0-2.18.46-3.83 1.38-4.95.92-1.12 2.11-1.68 3.57-1.68.68 0 1.24.19 1.68.57.44.36.66.86.66 1.5 0 1.2-.51 2.21-1.53 3.03-1 .8-2.23 1.22-3.69 1.26.08.78.34 1.46.78 2.04.46.56.99.84 1.59.84.6 0 1.14-.14 1.62-.42.48-.28.92-.68 1.32-1.2.84-1.1 1.56-2.35 2.16-3.75.16-.36.28-.62.36-.78.1-.16.2-.24.3-.24.12 0 .18.08.18.24 0 1-.61 2.5-1.83 4.5-1.32 2.14-2.95 3.21-4.89 3.21zm-1.59-5.16c1.18-.2 2.04-.58 2.58-1.14.56-.56.84-1.29.84-2.19 0-.9-.29-1.35-.87-1.35-.7 0-1.29.49-1.77 1.47-.48.96-.74 2.03-.78 3.21zm9.33-2.82l1.65-.18c.16 0 .3.09.42.27.12.18.18.37.18.57 0 .2-.07.88-.21 2.04-.12 1.16-.18 2.08-.18 2.76 0 .66.06.99.18.99.34-.02.81-.44 1.41-1.26.6-.84 1.19-1.91 1.77-3.21.6-1.3.96-1.95 1.08-1.95.14 0 .21.08.21.24 0 .56-.29 1.45-.87 2.67-1.58 3.36-2.91 5.04-3.99 5.04-.78 0-1.37-.16-1.77-.48-.14-.14-.21-1.01-.21-2.61 0-1.6.17-2.97.51-4.11-1.16 0-1.97-.37-2.43-1.11-.24-.38-.36-.81-.36-1.29s.1-.9.3-1.26c.2-.36.48-.54.84-.54.38 0 .72.2 1.02.6.32.38.48.81.48 1.29s-.14.96-.42 1.44c.08.06.21.09.39.09zm7.226 7.98c-.44 0-.85-.05-1.23-.15-.36-.12-.58-.23-.66-.33-.2-.24-.3-1.48-.3-3.72 0-2.26.25-5.32.75-9.18.42-3.18 1.4-4.77 2.94-4.77.36 0 .62.2.78.6.16.38.24.75.24 1.11 0 2.6-.79 5.51-2.37 8.73-.06 1.66-.09 3.11-.09 4.35 0 1.22.11 1.83.33 1.83.34-.02.81-.44 1.41-1.26.6-.84 1.19-1.91 1.77-3.21.6-1.3.96-1.95 1.08-1.95.14 0 .21.08.21.24 0 .56-.29 1.45-.87 2.67-1.58 3.36-2.91 5.04-3.99 5.04zm1.77-16.17c0-.64-.08-.96-.24-.96-.6 0-1.04 2.49-1.32 7.47 1.04-2.74 1.56-4.91 1.56-6.51zm9.714 16.17c-.78 0-1.37-.16-1.77-.48-.14-.14-.21-.49-.21-1.05 0-.58.02-1.35.06-2.31-.52 1.3-1.04 2.27-1.56 2.91-.5.62-1.15.93-1.95.93s-1.5-.37-2.1-1.11c-.6-.76-.9-1.94-.9-3.54 0-1.62.45-3.05 1.35-4.29.92-1.24 2.12-1.86 3.6-1.86.64 0 1.36.42 2.16 1.26.16-.22.44-.48.84-.78.42-.32.77-.48 1.05-.48.3 0 .45.38.45 1.14 0 .2-.06.59-.18 1.17-.1.58-.22 1-.36 1.26-.18.46-.27 2.09-.27 4.89 0 .54.06.81.18.81.34-.02.81-.44 1.41-1.26.6-.84 1.19-1.91 1.77-3.21.6-1.3.96-1.95 1.08-1.95.14 0 .21.08.21.24 0 .56-.29 1.45-.87 2.67-1.58 3.36-2.91 5.04-3.99 5.04zm-3.66-9.6c-.56 0-1.16.42-1.8 1.26-.62.82-.93 1.79-.93 2.91s.16 2.04.48 2.76c.34.72.78 1.08 1.32 1.08.66 0 1.63-1.65 2.91-4.95.02-.16.04-.43.06-.81l.09-.9c-.18-.32-.5-.62-.96-.9-.44-.3-.83-.45-1.17-.45zm12.324-.9c.92 0 1.68.34 2.28 1.02.6.66.91 1.59.93 2.79a10.8 10.8 0 002.16-.87c.64-.34.98-.51 1.02-.51.12 0 .18.1.18.3 0 .2-.29.51-.87.93-.56.42-1.41.84-2.55 1.26-.24 1.78-.96 3.16-2.16 4.14-1.2.96-2.4 1.44-3.6 1.44-1.2 0-2-.44-2.4-1.32-.4-.9-.6-2.31-.6-4.23 0-1.92.14-3.74.42-5.46.28-1.72.64-3.07 1.08-4.05.44-1 .89-1.76 1.35-2.28.48-.54.93-.81 1.35-.81.2 0 .38.24.54.72.18.48.27 1.07.27 1.77 0 1.54-.28 3.34-.84 5.4.38-.16.86-.24 1.44-.24zm1.35 5.4c-.16.02-.5.03-1.02.03-.5 0-1.06-.17-1.68-.51-.6-.36-1.01-.85-1.23-1.47-.2.5-.43.98-.69 1.44.04 1.52.16 2.61.36 3.27.2.66.52.99.96.99.7 0 1.38-.29 2.04-.87.68-.6 1.1-1.56 1.26-2.88zm-2.67-10.02c0-.84-.11-1.26-.33-1.26-.18 0-.4.44-.66 1.32-.24.86-.47 2.04-.69 3.54-.2 1.48-.3 2.95-.3 4.41 1.32-3.74 1.98-6.41 1.98-8.01zm.84 5.7c-.28 0-.51.09-.69.27-.16.16-.24.38-.24.66 0 .62.27 1.14.81 1.56.56.4 1.23.6 2.01.6-.02-.82-.18-1.54-.48-2.16-.3-.62-.77-.93-1.41-.93z" fill="#fff"/><path d="M0 20.5C0 9.178 9.178 0 20.5 0S41 9.178 41 20.5c0 .6-.04 1.19-.09 1.778a6.382 6.382 0 00-7.059 1.448 7.64 7.64 0 00-3.101-.663 7.687 7.687 0 00-7.688 7.687c0 1.106.244 2.151.664 3.101a6.378 6.378 0 00-1.448 7.06c-.587.05-1.178.089-1.778.089C9.178 41 0 31.822 0 20.5z" fill="#412D22"/><path d="M20.5 0C9.178 0 0 9.178 0 20.5S9.178 41 20.5 41c.6 0 1.191-.04 1.778-.09a6.382 6.382 0 011.448-7.059 7.642 7.642 0 01-.663-3.101 7.687 7.687 0 017.687-7.688 7.64 7.64 0 013.101.664 6.378 6.378 0 017.06-1.448c.05-.587.089-1.178.089-1.778C41 9.178 31.822 0 20.5 0zM6.406 20.5a1.281 1.281 0 110-2.563 1.281 1.281 0 010 2.563zm6.406 10.25a2.562 2.562 0 110-5.125 2.562 2.562 0 010 5.125zm2.563-17.938a2.563 2.563 0 110-5.125 2.563 2.563 0 010 5.125zm3.844 10.25a1.281 1.281 0 110-2.562 1.281 1.281 0 010 2.562zm7.687-17.937a1.281 1.281 0 110 2.562 1.281 1.281 0 010-2.562zm1.282 12.813a2.563 2.563 0 110-5.126 2.563 2.563 0 010 5.126z" fill="#E39A3B"/></svg>