<svg width="31" height="31" fill="none" xmlns="http://www.w3.org/2000/svg"><path d="M15.5 31.001c8.56 0 15.5-6.94 15.5-15.5 0-8.56-6.94-15.5-15.5-15.5C6.94.001 0 6.941 0 15.501c0 8.56 6.94 15.5 15.5 15.5z" fill="#fff"/><path d="M24.761 16.749v6.39h-3.705v-5.962c0-1.497-.535-2.52-1.876-2.52-1.024 0-1.632.69-1.9 1.356-.098.238-.123.568-.123.903v6.223h-3.705s.05-10.098 0-11.143h3.705v1.58l-.025.035h.025v-.036c.492-.757 1.37-1.84 3.34-1.84 2.437 0 4.264 1.592 4.264 5.014zM9.576 6.625c-1.268 0-2.097.832-2.097 1.925 0 1.07.805 1.925 2.048 1.925h.024c1.292 0 2.096-.855 2.096-1.925-.025-1.093-.804-1.925-2.071-1.925zM7.699 23.139h3.704V11.996H7.699v11.143z" fill="#412D22"/></svg>