<svg width="31" height="31" fill="none" xmlns="http://www.w3.org/2000/svg"><path d="M15.5 31C24.06 31 31 24.06 31 15.5 31 6.94 24.06 0 15.5 0 6.94 0 0 6.94 0 15.5 0 24.06 6.94 31 15.5 31z" fill="#E39A3B"/><path d="M24.994 11.14a7.393 7.393 0 01-2.128.582 3.715 3.715 0 001.629-2.05 7.417 7.417 0 01-2.353.9 3.706 3.706 0 00-6.313 3.38 10.517 10.517 0 01-7.637-3.872 3.705 3.705 0 001.146 4.947 3.68 3.68 0 01-1.678-.464v.047a3.707 3.707 0 002.972 3.632 3.693 3.693 0 01-1.673.064 3.709 3.709 0 003.461 2.573 7.433 7.433 0 01-5.485 1.534 10.48 10.48 0 005.679 1.665c6.815 0 10.541-5.645 10.541-10.542 0-.16-.003-.32-.01-.479a7.512 7.512 0 001.849-1.918z" fill="#412D22"/></svg>