<svg width="32" height="32" fill="none" xmlns="http://www.w3.org/2000/svg"><path d="M.747 16.135C.747 7.626 7.644.728 16.153.728s15.406 6.898 15.406 15.407c0 .45-.03.895-.067 1.336a4.797 4.797 0 00-5.305 1.088 5.743 5.743 0 00-2.33-.498 5.777 5.777 0 00-5.778 5.777c0 .831.183 1.617.498 2.33a4.793 4.793 0 00-1.088 5.306c-.44.038-.885.067-1.336.067-8.509 0-15.406-6.898-15.406-15.406z" fill="#412D22"/><path d="M16.153.728C7.644.728.747 7.626.747 16.135c0 8.508 6.897 15.406 15.406 15.406.451 0 .895-.03 1.337-.067a4.797 4.797 0 011.087-5.305 5.743 5.743 0 01-.498-2.331 5.777 5.777 0 015.777-5.777 5.74 5.74 0 012.331.498 4.793 4.793 0 015.305-1.088c.038-.441.067-.885.067-1.336C31.56 7.626 24.662.728 16.153.728zM5.561 16.135a.963.963 0 110-1.926.963.963 0 010 1.926zm4.815 7.703a1.926 1.926 0 110-3.852 1.926 1.926 0 010 3.852zm1.925-13.48a1.926 1.926 0 110-3.852 1.926 1.926 0 010 3.851zm2.89 7.703a.963.963 0 110-1.926.963.963 0 010 1.925zM20.967 4.58a.963.963 0 110 1.926.963.963 0 010-1.926zm.962 9.629a1.926 1.926 0 110-3.852 1.926 1.926 0 010 3.852z" fill="#E39A3B"/></svg>