<svg width="31" height="31" fill="none" xmlns="http://www.w3.org/2000/svg"><path d="M23.636 20.345l-2.786-2.808c-.555-.557-1.474-.54-2.048.04l-1.404 1.413-.277-.155c-.886-.495-2.1-1.173-3.376-2.46-1.28-1.29-1.954-2.515-2.447-3.408-.052-.095-.101-.186-.15-.273l.941-.948.464-.467c.575-.58.59-1.505.037-2.064L9.804 6.407c-.554-.557-1.473-.54-2.048.04l-.786.795.022.021a4.584 4.584 0 00-.647 1.15 4.794 4.794 0 00-.288 1.167c-.368 3.073 1.026 5.881 4.808 9.692 5.228 5.267 9.442 4.87 9.624 4.85a4.68 4.68 0 001.16-.294 4.517 4.517 0 001.138-.649l.017.016.795-.785c.574-.58.59-1.506.037-2.065z" fill="#412D22"/></svg>